<svg width="192" height="52" viewBox="0 0 192 52" fill="none" xmlns="http://www.w3.org/2000/svg">
<g clip-path="url(#clip0_4001_1421)">
<path d="M145.585 0.0232277V24.9162C145.585 26.5343 146.384 27.3636 148.016 27.4479C148.033 27.4479 156.218 27.4479 156.218 27.4479V30.2393C156.218 30.5528 156.049 30.7719 155.699 30.7719H142.42C138.32 30.7719 137.71 28.5132 137.71 26.4602V1.71894C137.71 0.549135 138.158 -0.0037419 139.537 0.0265989H145.585" fill="#020000"/>
<path d="M130.283 0.0232277V29.1538C130.287 30.4483 129.734 30.7753 128.635 30.7753H122.405V1.63466C122.405 0.673869 122.769 0.0265989 124.168 0.0265989H130.283" fill="#020000"/>
<path d="M0 4.2642C0 1.92121 0 0.0232277 3.85328 0.0232277H20.7834V2.97977C20.7834 3.19215 20.6823 3.38094 20.389 3.38094L10.2417 3.37757C8.87974 3.37757 8.19201 4.03158 8.19201 5.40703C8.19201 5.42726 8.19201 13.2147 8.19201 13.2147H20.1294V16.3162C20.1294 16.5893 19.9575 16.7376 19.6878 16.7376C19.6811 16.7376 8.18864 16.7376 8.18864 16.7376V29.1268C8.16167 30.3236 7.56834 30.7989 6.25694 30.7753H0V4.2642Z" fill="#020000"/>
<path d="M33.0108 0.0232277V23.4632C33.0108 25.4758 33.294 26.8849 34.7065 27.7008C36.5977 28.7964 39.8071 28.8133 41.7354 27.7311C43.0569 26.9928 43.5593 25.8095 43.5593 23.4699V1.58409C43.5593 0.599703 43.9335 0.0232277 45.3123 0.0232277H51.4377V22.7687C51.4377 28.0514 48.1137 30.2191 45.1741 31.0214C41.2601 32.0901 35.3133 32.1069 31.6252 30.9978C27.2089 29.6695 25.1491 27.0569 25.1458 22.7687V1.60095C25.139 0.579475 25.5031 0.0232277 26.6763 0.0232277H33.0108Z" fill="#020000"/>
<path d="M182.014 0.0265989C180.46 0.0265989 179.574 0.751407 179.223 2.14034L174.207 23.3452H174.068L168.887 0.0265989H161.801C160.432 0.0265989 160.004 0.731179 160.004 1.81671V30.7787H162.994C163.476 30.7787 163.675 30.5393 163.675 30.0471V5.76438H164.15L170.556 30.7753H174.749C176.331 30.7753 176.917 30.1247 177.308 28.5638L183.059 5.76438H183.525V30.7753L189.118 30.7686C190.493 30.7686 191.117 30.2426 191.117 28.8908V0.0232277H182.008" fill="#020000"/>
<path d="M88.8749 16.7376H80.9964V30.7787H87.2264C88.3254 30.7787 88.8783 30.455 88.8783 29.1571C88.8783 29.1571 88.8749 23.1496 88.8749 16.7376Z" fill="#020000"/>
<path d="M88.4164 10.7369C88.6928 10.511 88.8547 10.3425 88.8749 9.86038V0.0232277H82.7595C81.3841 0.0232277 80.9964 0.700839 80.9964 1.65489V16.5421L88.4164 10.7302" fill="#E6002D"/>
<path d="M61.4098 28.3447C64.8281 27.8592 65.9676 25.8264 65.9676 22.8328V1.69534C65.9676 0.431143 66.652 0.0232277 67.5352 0.0232277H73.8461V20.0077C73.8461 24.9229 72.8111 27.4041 69.8984 29.4976C68.3814 30.5865 65.735 31.8271 59.9938 31.8271C56.7069 31.8271 55.2472 31.6417 55.0483 31.5945C54.7719 31.5304 54.6572 31.3619 54.6572 31.1192V28.5402C56.0057 28.5773 59.0971 28.6717 61.4098 28.3447Z" fill="#020000"/>
<path d="M100.812 0.0232277C96.9624 0.0232277 96.959 1.92121 96.959 4.2642V12.1865C96.959 12.3517 96.8882 12.4158 96.8175 12.4899L91.4269 16.7343H96.959V30.7719H103.219C104.531 30.7955 105.124 30.3202 105.148 29.1234V16.7343C105.148 16.7343 116.637 16.7343 116.647 16.7343C116.913 16.7343 117.088 16.5859 117.088 16.3129V13.2114H105.148C105.148 13.2114 105.148 5.42389 105.148 5.40366C105.148 4.02821 105.835 3.3742 107.197 3.3742C107.197 3.3742 117.345 3.3742 117.345 3.37757C117.638 3.37757 117.739 3.18541 117.739 2.9764V0.0232277H100.809" fill="#020000"/>
<path d="M9.82366 39.9989L13.5118 48.1403L16.9268 39.9989H18.6899L13.8556 51.5115C13.741 51.7812 13.4747 51.9599 13.1814 51.9599H12.3824L7.19413 40.4405C7.09973 40.2315 7.25144 39.9955 7.48068 39.9955H9.82366" fill="#020000"/>
<path d="M30.5093 51.2924C30.5093 51.5621 30.2902 51.7779 30.0239 51.7779H27.9809V39.1999C27.9809 38.9302 28.2001 38.7145 28.4664 38.7145H30.5093V51.2924Z" fill="#020000"/>
<path d="M100.829 40.4844C100.829 40.2147 101.045 39.9989 101.315 39.9989H103.56V51.2924C103.56 51.5621 103.341 51.7779 103.074 51.7779H100.826V40.4844" fill="#020000"/>
<path d="M137.346 42.7397L139.807 48.3055L142.315 42.7397H144.061L140.11 51.5351C139.989 51.8048 139.719 51.9801 139.423 51.9801H138.742L134.865 43.1847C134.77 42.9757 134.925 42.7397 135.155 42.7397H137.346Z" fill="#020000"/>
<path d="M161.066 43.387C161.066 43.1173 161.285 42.9015 161.555 42.9015H163.614V51.2924C163.614 51.5621 163.399 51.7779 163.129 51.7779H161.069V43.387" fill="#020000"/>
<path d="M68.2634 42.6992C67.4813 42.6992 66.6621 43.1375 66.035 43.6499V42.9015H63.9752C63.7055 42.9015 63.4898 43.1206 63.4898 43.387V51.7745H65.5496C65.8193 51.7745 66.035 51.5554 66.035 51.289V45.2782C67.5217 43.8117 69.0253 44.5433 69.7905 45.1164V43.0768C69.4332 42.8273 69.1197 42.6925 68.2634 42.6925V42.6992Z" fill="#020000"/>
<path d="M22.3274 42.6959C25.1559 42.6959 25.7897 44.014 25.7897 45.1198V51.2924C25.7897 51.5621 25.5705 51.7779 25.3042 51.7779H23.2276V51.0092C22.4286 51.7947 21.3734 51.9498 20.8003 51.9498C20.2272 51.9498 18.1539 51.7172 18.1539 49.5192C18.1539 47.1324 21.134 46.2491 23.2208 45.6929C23.2208 45.0827 23.1837 44.8703 23.059 44.4219C22.9343 43.9735 22.3443 43.8488 22.0982 43.8488C21.0565 43.8488 19.8058 44.1994 18.7809 44.6613V43.424C19.7518 43.0768 21.1273 42.6925 22.3241 42.6925L22.3274 42.6959ZM23.2276 49.7585C23.2276 48.8719 23.2276 47.7156 23.2276 46.8526C21.4678 47.4189 20.7329 48.5078 20.7329 49.2866C20.7329 49.8428 21.0632 50.4867 21.7071 50.4867C22.5601 50.4867 22.9747 50.0518 23.2309 49.7585H23.2276Z" fill="#020000"/>
<path d="M61.2445 40.3664C61.8615 40.3225 62.3436 40.4203 62.9908 40.6023V39.4629C62.2964 39.2909 61.703 39.21 61.0153 39.21C59.9399 39.21 57.5531 39.6382 57.5531 41.7418V42.9049H55.8978V43.9904H57.5531V51.7812H59.6129C59.8826 51.7812 60.0983 51.5621 60.0983 51.2958V43.9904H62.1952V42.9049H60.0983V42.3149C60.0983 41.7081 60.0815 41.4721 60.2602 41.044C60.4422 40.6023 60.9951 40.3832 61.2412 40.3664H61.2445Z" fill="#020000"/>
<path d="M46.2495 51.9768C43.8694 51.9768 41.9276 49.9271 41.9276 47.6245C41.9276 44.55 43.8964 42.7195 46.3439 42.7464C48.997 42.7768 50.3589 44.6444 50.2612 47.1593H44.4324C44.4324 48.3662 44.7189 50.2204 46.6877 50.2204C48.3531 50.1597 48.9599 48.7573 49.1116 48.373H50.4196C50.2679 49.327 49.9005 49.9439 49.3341 50.5271C48.7037 51.1812 47.6485 51.9397 46.2495 51.9734V51.9768ZM47.3316 46.2424C47.2945 44.3545 46.5899 43.832 45.8112 43.8353C44.6212 43.8421 44.4594 45.467 44.4492 46.2424H47.3316Z" fill="#020000"/>
<path d="M79.594 47.1728C79.594 49.6978 77.6522 51.9464 74.9316 51.9464C72.2111 51.9464 70.2861 49.9574 70.2861 47.4324C70.2861 44.9074 72.0729 42.7262 74.9215 42.7262C77.5645 42.7262 79.5906 44.6511 79.5906 47.1762L79.594 47.1728ZM74.5642 43.7881C73.7045 43.9297 72.6257 45.2512 73.1786 48.2887C73.5393 50.2811 74.4765 50.8609 75.2317 50.8609C75.9868 50.8609 76.8364 49.7821 76.8364 47.9347C76.8364 44.1994 75.2384 43.6802 74.5642 43.7915V43.7881Z" fill="#020000"/>
<path d="M134.322 47.1728C134.322 49.6978 132.38 51.9464 129.66 51.9464C126.939 51.9464 125.014 49.9574 125.014 47.4324C125.014 44.9074 126.801 42.7262 129.65 42.7262C132.293 42.7262 134.319 44.6511 134.319 47.1762L134.322 47.1728ZM129.292 43.7881C128.433 43.9297 127.354 45.2512 127.907 48.2887C128.267 50.2811 129.205 50.8609 129.96 50.8609C130.715 50.8609 131.564 49.7821 131.564 47.9347C131.564 44.1994 129.966 43.6802 129.292 43.7915V43.7881Z" fill="#020000"/>
<path d="M174.658 47.1728C174.658 49.6978 172.717 51.9464 169.996 51.9464C167.275 51.9464 165.351 49.9574 165.351 47.4324C165.351 44.9074 167.137 42.7262 169.986 42.7262C172.629 42.7262 174.655 44.6511 174.655 47.1762L174.658 47.1728ZM169.629 43.7881C168.769 43.9297 167.69 45.2512 168.243 48.2887C168.604 50.2811 169.541 50.8609 170.296 50.8609C171.051 50.8609 171.901 49.7821 171.901 47.9347C171.901 44.1994 170.303 43.6802 169.629 43.7915V43.7881Z" fill="#020000"/>
<path d="M163.749 40.6799C163.749 41.4519 163.126 42.0756 162.357 42.0756C161.588 42.0756 160.965 41.4519 160.965 40.6799C160.965 39.9079 161.588 39.2842 162.357 39.2842C163.126 39.2842 163.749 39.9079 163.749 40.6799Z" fill="#020000"/>
<path d="M35.2122 42.9049V49.1584C35.2122 49.7349 35.6639 50.4092 36.4427 50.4092C36.8809 50.4092 37.4506 49.8799 37.8046 49.3101V43.3937C37.8046 43.124 38.0238 42.9082 38.2901 42.9082H40.3566V51.2992C40.3566 51.5689 40.1409 51.7846 39.8712 51.7846H37.8046V50.9587C37.4709 51.2621 37.1135 51.5048 36.736 51.6835C36.3584 51.8621 35.9875 51.9532 35.6268 51.9532C33.8468 51.9532 32.6669 50.5979 32.6669 49.1652V43.3971C32.6669 43.1274 32.886 42.9116 33.1524 42.9116H35.2122" fill="#020000"/>
<path d="M178.788 45.2782C178.872 45.1939 179.756 44.3309 180.565 44.2938C181.077 44.2938 181.411 44.8905 181.411 45.6996V51.7812H183.471C183.74 51.7812 183.956 51.5621 183.956 51.2958V45.4299C183.956 43.7645 182.574 42.7262 181.394 42.7262C180.086 42.7262 179.233 43.2723 178.785 43.6027V42.9082H176.708C176.442 42.9082 176.223 43.1274 176.223 43.3937V51.7812H178.296C178.566 51.7812 178.781 51.5621 178.781 51.2958V45.2816L178.788 45.2782Z" fill="#020000"/>
<path d="M118.282 45.2782C118.366 45.1939 119.249 44.3309 120.058 44.2938C120.571 44.2938 120.905 44.8905 120.905 45.6996V51.7812H122.964C123.234 51.7812 123.45 51.5621 123.45 51.2958V45.4299C123.45 43.7645 122.068 42.7262 120.888 42.7262C119.58 42.7262 118.727 43.2723 118.278 43.6027V42.9082H116.202C115.936 42.9082 115.716 43.1274 115.716 43.3937V51.7812H117.79C118.059 51.7812 118.275 51.5621 118.275 51.2958V45.2816L118.282 45.2782Z" fill="#020000"/>
<path d="M108.59 45.2782C108.674 45.1939 109.557 44.3309 110.366 44.2938C110.879 44.2938 111.212 44.8905 111.212 45.6996V51.7812H113.272C113.542 51.7812 113.758 51.5621 113.758 51.2958V45.4299C113.758 43.7645 112.376 42.7262 111.196 42.7262C109.888 42.7262 109.035 43.2723 108.586 43.6027V42.9082H106.51C106.243 42.9082 106.024 43.1274 106.024 43.3937V51.7812H108.097C108.367 51.7812 108.583 51.5621 108.583 51.2958V45.2816L108.59 45.2782Z" fill="#020000"/>
<path d="M91.5247 42.7228C90.2166 42.7228 89.2592 43.2791 88.5175 43.8387C87.9815 43.0161 86.9971 42.7228 86.3397 42.7228C85.0317 42.7228 84.1788 43.269 83.7304 43.5993V42.9049H81.6538C81.3875 42.9049 81.1683 43.124 81.1683 43.3903V51.7779H83.2416C83.5113 51.7779 83.7271 51.5587 83.7271 51.2924V45.2782C83.8114 45.1939 84.6946 44.3309 85.5037 44.2938C86.0161 44.2938 86.3499 44.8905 86.3499 45.6996V51.7812H88.4232C88.6929 51.7812 88.9086 51.5621 88.9086 51.2958V45.2816C88.9929 45.1973 89.8761 44.3343 90.6852 44.2972C91.1976 44.2972 91.5314 44.8939 91.5314 45.703V51.7846H93.5912C93.8609 51.7846 94.0767 51.5655 94.0767 51.2992V45.4333C94.0767 43.7679 92.6945 42.7296 91.5145 42.7296L91.5247 42.7228Z" fill="#020000"/>
<path d="M148.12 50.4867C147.476 50.4867 147.146 49.8428 147.146 49.2866C147.146 48.5044 147.881 47.4189 149.641 46.8525C149.641 47.7156 149.641 48.8719 149.641 49.7585C149.385 50.0518 148.97 50.4867 148.117 50.4867H148.12ZM145.201 43.4308V44.668C146.222 44.2028 147.476 43.8556 148.518 43.8556C148.764 43.8556 149.354 43.9803 149.479 44.4287C149.604 44.877 149.641 45.0894 149.641 45.6996C147.551 46.2558 144.574 47.1391 144.574 49.5259C144.574 51.7273 146.63 51.9565 147.22 51.9565C147.81 51.9565 148.849 51.7981 149.648 51.016V51.7846H151.724C151.99 51.7846 152.21 51.5655 152.21 51.2992V45.1265C152.21 44.0207 151.576 42.7026 148.747 42.7026C147.551 42.7026 146.172 43.0903 145.204 43.4342L145.201 43.4308Z" fill="#020000"/>
<path d="M154.718 42.8846V40.5619C154.718 40.2922 154.937 40.0764 155.203 40.0764H157.303V42.8846H159.38V43.9904H157.303V49.7214C157.303 49.8967 157.347 50.0518 157.432 50.1833C157.516 50.3148 157.715 50.3822 157.971 50.3822C158.48 50.3822 159.272 49.9642 159.407 49.7383V51.0126C158.871 51.4408 157.984 51.9801 156.872 51.9801C155.234 51.9801 154.748 50.8137 154.748 49.7956V43.987H153.403V42.8813H154.718" fill="#020000"/>
</g>
<defs>
<clipPath id="clip0_4001_1421">
<rect width="191.123" height="51.9535" fill="white" transform="translate(0 0.0232277)"/>
</clipPath>
</defs>
</svg>
