<svg width="323" height="44" viewBox="0 0 323 44" fill="none" xmlns="http://www.w3.org/2000/svg">
<path d="M0.0241404 18.8142C0.0241404 14.1544 0.0474793 9.49456 0.000803487 4.84254C-0.00697581 4.05683 0.218624 3.88568 0.973216 3.89346C5.01845 3.93236 9.06369 3.90902 13.1167 3.90902C14.6726 3.90902 16.1895 4.12684 17.6676 4.60138C21.0594 5.69048 22.9186 8.05539 23.1442 11.595C23.2298 12.8552 23.1909 14.1232 22.8875 15.3601C22.0551 18.8064 19.6202 20.4245 16.3607 21.0935C15.0849 21.358 13.8013 21.4747 12.4944 21.4747C9.64713 21.4591 6.80769 21.498 3.96825 21.4513C3.21366 21.4358 3.05807 21.6769 3.06585 22.3771C3.09697 25.8622 3.06584 29.3473 3.09696 32.8325C3.10474 33.5326 2.8947 33.7115 2.21012 33.7037C0.0163592 33.6726 0.0163654 33.7037 0.0163654 31.4866V18.8064L0.0241404 18.8142ZM3.08919 12.5674V17.8417C3.08919 18.2307 3.05029 18.5574 3.63373 18.5419C7.3678 18.4408 11.1096 18.713 14.8359 18.3552C17.5898 18.0829 19.2468 16.8538 19.7758 14.6445C19.978 13.8043 20.0481 12.9408 19.9858 12.0773C19.7913 9.2534 18.6633 7.80645 16.0962 7.13743C15.5594 6.99741 15.0071 6.91961 14.4625 6.86515C10.8918 6.51508 7.30556 6.77958 3.72708 6.68623C3.15141 6.67067 3.08141 6.91961 3.08919 7.39415C3.11252 9.12115 3.09696 10.8482 3.09696 12.5752L3.08919 12.5674Z" fill="#000100"/>
<path d="M120.416 23.3483C117.296 23.3483 114.177 23.3639 111.057 23.3327C110.435 23.3327 110.295 23.4883 110.388 24.1029C110.886 27.588 112.458 30.233 116.052 31.2054C118.401 31.8433 120.766 31.7577 122.998 30.6531C124.469 29.9296 125.535 28.7938 126.157 27.2846C126.375 26.7556 126.655 26.5923 127.192 26.6312C127.775 26.6778 128.366 26.6778 128.95 26.6312C129.658 26.5767 129.712 26.8334 129.51 27.4324C128.343 30.8553 125.978 33.0413 122.524 33.9515C118.37 35.0406 114.426 34.5738 110.995 31.7733C108.591 29.8051 107.487 27.1213 107.238 24.1029C106.926 20.3611 107.72 16.9226 110.505 14.1843C113.072 11.656 116.277 10.8392 119.762 11.0415C123.839 11.2826 127.137 12.9474 129.152 16.6581C130.155 18.5096 130.521 20.5244 130.56 22.6248C130.576 23.2394 130.381 23.3872 129.79 23.3794C126.67 23.3483 123.551 23.3639 120.431 23.3639V23.3483H120.416ZM118.837 20.9367C121.396 20.9367 123.963 20.9134 126.523 20.9523C127.145 20.9601 127.246 20.7811 127.129 20.2133C126.803 18.6029 126.18 17.156 124.959 16.0202C122.633 13.8809 119.832 13.4219 116.853 13.982C113.516 14.6122 111.361 16.6037 110.544 19.9488C110.373 20.6489 110.458 20.9756 111.337 20.9523C113.834 20.89 116.339 20.9289 118.837 20.9289V20.9367Z" fill="#000100"/>
<path d="M43.6028 30.535C43.4472 30.6595 43.3617 30.714 43.2839 30.7918C39.4565 34.5336 34.8745 34.8992 30.0435 33.4912C27.3597 32.7132 25.9438 30.3794 25.9827 27.5244C26.0216 24.9262 27.5308 22.9035 30.1524 22.04C32.8363 21.1532 35.6524 20.9743 38.4296 20.5775C39.4098 20.4375 40.39 20.3286 41.3546 20.1263C42.4593 19.8929 43.4239 19.4495 43.5873 18.1348C43.7818 16.6645 43.2761 15.5443 42.0703 14.8286C41.2301 14.3308 40.3044 14.1285 39.3476 14.0196C37.395 13.7862 35.4579 13.8795 33.5753 14.4474C31.6227 15.0387 30.2769 16.2289 29.9424 18.3215C29.8646 18.8116 29.6857 19.0217 29.18 18.9517C28.8766 18.9128 28.5655 18.9439 28.2543 18.9439C26.8384 18.9439 26.8229 18.9439 27.1185 17.528C27.842 14.0274 30.1913 12.2303 33.5286 11.5924C36.2125 11.079 38.9353 11.0712 41.6191 11.6858C44.8086 12.4248 46.4578 14.3696 46.5278 17.6136C46.6134 21.3399 46.5667 25.074 46.5823 28.808C46.5823 29.1192 46.5667 29.4304 46.6056 29.7338C46.7379 30.8462 47.0646 31.1418 48.1848 30.9707C48.8461 30.8695 49.0172 31.0251 49.0094 31.6941C48.9861 33.6078 48.955 33.6701 47.0335 33.7401C44.8242 33.8257 44.1163 33.2422 43.7506 31.0329C43.7273 30.8929 43.6728 30.7528 43.6184 30.5272H43.6106L43.6028 30.535ZM43.6339 24.0238C43.6339 23.5337 43.6184 23.0358 43.6339 22.5457C43.6495 22.0712 43.5095 21.97 43.0427 22.1412C40.919 22.8958 38.6785 23.1603 36.4614 23.5337C34.7033 23.8215 32.9218 24.0082 31.2337 24.6461C30.2147 25.0273 29.3745 25.5952 29.0711 26.731C28.5654 28.6213 29.569 30.3717 31.6616 31.0874C33.4897 31.7175 35.3723 31.6397 37.2316 31.2818C40.4756 30.6595 43.9062 28.6213 43.6339 24.0238Z" fill="#000100"/>
<path d="M298.539 10.3877C299.892 10.3877 301.215 10.411 302.537 10.3721C303.082 10.3566 303.198 10.5277 303.16 11.0567C303.027 13.3516 303.043 13.3516 300.74 13.3516H299.441C298.103 13.3516 298.126 13.3516 297.963 14.7285C297.099 21.6288 296.259 28.5368 295.341 35.437C295.03 37.763 294.136 39.8868 292.549 41.676C290.433 44.0721 287.702 44.2199 284.816 43.7998C284.458 43.7453 284.357 43.5742 284.466 43.2241C284.738 42.4073 285.01 41.5905 285.244 40.7659C285.376 40.3069 285.625 40.3224 286.006 40.4314C286.683 40.6258 287.368 40.8203 288.068 40.9292C289.242 41.1159 289.74 40.8281 290.246 39.7156C290.923 38.2376 291.078 36.6273 291.265 35.0403C291.996 29.1125 292.704 23.1847 293.428 17.249C293.56 16.1522 293.677 15.0397 293.848 13.9506C293.926 13.4216 293.723 13.3049 293.256 13.3438C292.891 13.375 292.517 13.3827 292.144 13.3438C291.817 13.3049 291.203 13.5383 291.211 13.1494C291.211 12.6126 291.071 11.7802 291.872 11.5935C293.902 11.1267 294.626 9.8587 295.022 7.85943C295.614 4.86439 297.387 2.47615 300.095 0.889173C301.884 -0.161032 303.79 -0.14547 305.742 0.321288C306.24 0.437977 306.419 0.64024 306.201 1.16145C305.89 1.9316 305.626 2.71731 305.369 3.5108C305.237 3.93866 305.081 3.91532 304.715 3.72862C302.086 2.32834 300.398 2.99736 299.394 5.78235C298.865 7.24486 298.733 8.77738 298.523 10.3877H298.531H298.539Z" fill="#01916D"/>
<path d="M262.458 33.6865C259.401 33.6865 256.344 33.6943 253.287 33.671C252.999 33.671 252.376 33.9277 252.501 33.2898C252.602 32.753 252.112 31.8973 253.139 31.7106C253.746 31.5939 254.345 31.4383 254.951 31.3683C255.449 31.3139 255.613 31.0727 255.675 30.6059C256.157 26.6618 256.663 22.7177 257.153 18.7814C257.666 14.6273 258.164 10.4653 258.717 6.31119C258.802 5.68107 258.608 5.47881 258.048 5.42435C257.775 5.39324 257.503 5.29211 257.231 5.29989C256.251 5.31545 256.111 4.8409 256.235 3.96962C256.336 3.24615 256.523 2.98943 257.301 3.00499C260.265 3.05167 263.229 3.04389 266.2 3.00499C266.877 2.99721 266.955 3.1917 266.939 3.84516C266.916 4.90314 266.504 5.23765 265.469 5.28433C264.66 5.31544 263.579 5.12874 263.096 5.72775C262.668 6.25674 262.793 7.24471 262.692 8.0382C261.735 15.553 260.778 23.0756 259.829 30.5904C259.775 30.9871 259.712 31.3061 260.327 31.2827C262.793 31.1972 265.267 31.1272 267.733 31.1116C268.666 31.1116 269.219 30.8549 269.553 29.8825C270.113 28.2566 270.883 26.7007 271.506 25.0982C271.724 24.5303 272.011 24.3747 272.603 24.4836C274.299 24.7948 274.299 24.7715 273.933 26.4362C273.466 28.5756 272.984 30.7071 272.548 32.8464C272.416 33.4998 272.151 33.7254 271.451 33.7177C268.456 33.671 265.461 33.7021 262.466 33.7021L262.458 33.6865Z" fill="#01916D"/>
<path d="M158.503 34.4565C156.908 34.4565 154.894 34.2232 153.003 33.3519C150.405 32.1539 148.981 30.1079 148.592 27.2918C148.53 26.8484 148.631 26.6461 149.098 26.7006C149.254 26.7161 149.409 26.7006 149.565 26.7006C150.148 26.7006 150.802 26.5606 151.307 26.7628C151.821 26.9729 151.665 27.7352 151.891 28.2253C152.482 29.5323 153.447 30.4658 154.792 30.917C157.974 31.9827 161.164 31.9127 164.299 30.7458C165.59 30.2635 166.454 29.3222 166.555 27.8597C166.648 26.5294 166.111 25.6115 164.89 25.0514C163.459 24.3979 161.903 24.3435 160.386 24.0867C158.169 23.7056 155.913 23.5577 153.734 22.951C151.836 22.422 150.156 21.5662 149.448 19.5281C148.476 16.7042 149.58 13.8725 152.241 12.4411C154.746 11.0875 157.469 10.8853 160.246 11.0486C161.794 11.142 163.311 11.4298 164.719 12.0911C166.897 13.1101 168.328 14.7205 168.725 17.1554C168.842 17.8711 168.717 18.2989 167.862 18.1511C167.768 18.1356 167.675 18.1434 167.582 18.1511C166.531 18.2445 165.699 18.2211 165.403 16.8209C165.147 15.5995 164.05 14.8605 162.875 14.4404C160.106 13.4524 157.321 13.4369 154.528 14.3471C153.968 14.526 153.47 14.8527 153.042 15.265C151.611 16.6264 151.969 18.859 153.766 19.7225C155.181 20.4071 156.737 20.5005 158.254 20.765C160.44 21.1462 162.657 21.3484 164.812 21.8774C164.991 21.9241 165.17 21.9785 165.341 22.033C167.737 22.7254 169.363 24.1023 169.612 26.7473C169.861 29.3767 168.624 31.7416 166.306 32.9707C164.454 33.9587 162.058 34.441 158.488 34.4721L158.503 34.4565Z" fill="#000100"/>
<path d="M209.841 34.4541C202.871 34.4697 198.063 29.6621 198.087 22.7074C198.11 15.7683 202.824 11.0307 209.771 10.9684C216.695 10.9062 221.541 15.7216 221.565 22.6919C221.588 29.6699 216.835 34.4386 209.834 34.4541H209.841ZM201.113 22.7074C201.191 26.2236 202.326 29.1953 205.672 30.6734C209.102 32.1904 212.556 32.0426 215.614 29.6388C217.901 27.834 218.562 25.2512 218.515 22.4662C218.469 19.9458 217.792 17.6198 215.777 15.9472C212.712 13.4034 209.211 13.2245 205.703 14.757C202.311 16.235 201.175 19.2456 201.113 22.6996V22.7074Z" fill="#000100"/>
<path d="M313.414 34.0504C308.093 34.0504 304.927 31.3121 304.491 26.9479C303.947 21.4869 305.565 16.7026 309.618 12.9063C311.835 10.8292 314.526 9.89569 317.615 10.3158C322.422 10.9615 322.858 15.6835 321.279 18.2896C319.824 20.6778 317.537 21.9847 315.032 22.9727C313.22 23.6884 311.337 24.1863 309.392 24.3574C308.832 24.4041 308.684 24.5986 308.692 25.1509C308.707 26.1155 308.824 27.0568 309.128 27.967C309.991 30.5731 311.811 31.5999 314.511 31.032C316.269 30.6664 317.848 29.9274 319.194 28.7449C319.676 28.3171 319.871 28.3015 320.26 28.9005C320.789 29.7251 320.719 30.2619 319.995 30.9231C317.833 32.8913 315.351 34.0115 313.414 34.066V34.0504ZM317.825 15.6213C317.825 13.0852 315.88 11.9028 313.601 13.0619C312.939 13.4042 312.356 13.8631 311.881 14.4388C310.186 16.5003 309.415 18.943 308.918 21.5102C308.809 22.0703 309.058 22.1325 309.517 22.0625C312.138 21.6736 314.519 20.74 316.417 18.8341C317.288 17.955 317.817 16.8893 317.809 15.6135L317.825 15.6213Z" fill="#01916D"/>
<path d="M85.091 15.6137C88.4206 11.6307 92.5669 10.6972 97.2423 11.654C100.478 12.3153 102.244 14.5012 102.54 17.7997C102.742 20.079 102.641 22.3583 102.657 24.6377C102.672 27.3838 102.641 30.1221 102.672 32.8682C102.68 33.5139 102.501 33.7006 101.848 33.7006C99.7083 33.685 99.7083 33.7161 99.7083 31.6235C99.7083 28.045 99.7083 24.4665 99.7083 20.888C99.7083 19.869 99.615 18.8577 99.3894 17.8697C98.946 15.8782 97.8102 14.5246 95.7409 14.1901C92.9092 13.7311 90.1865 14.0189 87.8216 15.816C86.0634 17.1462 85.1688 18.951 85.161 21.1525C85.1455 25.0111 85.1377 28.8618 85.1766 32.7126C85.1844 33.4438 85.0521 33.7239 84.2353 33.7006C82.2049 33.6383 82.2049 33.685 82.2049 31.6702C82.2049 25.3767 82.2204 19.091 82.1893 12.7976C82.1893 11.9808 82.3527 11.6696 83.2395 11.7085C85.0832 11.7785 85.091 11.724 85.091 13.5444V15.5981V15.6137Z" fill="#000100"/>
<path d="M191.348 23.9391C191.348 26.9342 191.332 29.9214 191.363 32.9164C191.363 33.4921 191.254 33.7099 190.609 33.7099C188.376 33.7099 188.376 33.7333 188.376 31.5395C188.376 26.0784 188.36 20.6174 188.391 15.1641C188.391 14.4639 188.259 14.1683 187.497 14.2461C186.797 14.3161 186.073 14.2228 185.373 14.2695C184.774 14.3161 184.657 14.075 184.657 13.5382C184.657 11.7568 184.634 11.7568 186.447 11.7568C187.722 11.7568 188.368 11.1266 188.384 9.86638C188.399 8.76172 188.423 7.64929 188.718 6.56796C189.154 4.97321 190.056 4.13304 191.682 3.94634C193.012 3.79075 194.327 3.86855 195.634 4.17194C196.062 4.27307 196.295 4.42866 196.311 4.95765C196.35 6.8558 196.373 6.84802 194.514 6.60686C194.179 6.56019 193.837 6.55241 193.495 6.56796C192.017 6.62242 191.441 7.17475 191.355 8.66837C191.309 9.50076 191.371 10.3331 191.332 11.1655C191.309 11.6712 191.503 11.7879 191.97 11.7801C193.176 11.7568 194.382 11.7879 195.587 11.7645C196.101 11.749 196.28 11.9046 196.295 12.4413C196.35 14.2773 196.373 14.2772 194.545 14.2772C193.712 14.2772 192.872 14.3162 192.048 14.2617C191.464 14.2306 191.324 14.4173 191.332 14.9852C191.363 17.9802 191.348 20.9674 191.348 23.9625H191.34L191.348 23.9391Z" fill="#000100"/>
<path d="M71.1982 22.3287C71.1982 19.8938 71.1826 17.451 71.2137 15.0161C71.2215 14.4249 71.0815 14.1993 70.4592 14.2382C69.689 14.2927 68.9111 14.2304 68.1487 14.2615C67.6975 14.2771 67.503 14.1915 67.4875 13.6703C67.4252 11.7488 67.3941 11.7488 69.3312 11.7488C71.2682 11.7488 71.2137 11.7488 71.2137 9.89735C71.2137 8.60599 71.2293 7.30684 71.206 6.0077C71.1982 5.53316 71.3149 5.38536 71.8205 5.37758C74.1621 5.31534 74.1621 5.292 74.1621 7.61802C74.1621 8.79269 74.1854 9.95959 74.1543 11.1343C74.1388 11.6244 74.3099 11.7722 74.7844 11.7566C75.9902 11.7333 77.196 11.7722 78.4018 11.7333C78.9775 11.7177 79.1331 11.92 79.1408 12.4801C79.1642 14.2538 79.1875 14.2538 77.4216 14.2538C76.527 14.2538 75.6324 14.2771 74.7378 14.246C74.2944 14.2304 74.1621 14.386 74.1621 14.8294C74.1854 19.637 74.1621 24.4524 74.2088 29.2678C74.2243 30.6914 74.8545 31.236 76.2858 31.3215C77.0015 31.3604 77.7017 31.2982 78.4018 31.1348C78.8297 31.0337 79.0942 31.057 79.0631 31.6327C78.9697 33.9587 79.5298 33.4842 77.126 33.9121C76.3325 34.0521 75.539 34.1299 74.73 34.0132C72.7696 33.7331 71.7816 32.7918 71.4238 30.8314C71.0348 28.7155 71.2993 26.5839 71.2293 24.4602C71.206 23.7523 71.2293 23.0444 71.2293 22.3364H71.2215L71.1982 22.3287Z" fill="#000100"/>
<path d="M285.773 30.0531C286.551 31.1967 286.567 31.22 285.579 32.1068C284.396 33.1804 283.105 34.0594 281.409 34.0517C279.581 34.0517 278.749 33.2504 278.873 31.4456C279.068 28.4661 279.628 25.5255 280.071 22.5694C280.452 19.9789 280.849 17.3962 281.269 14.8134C281.37 14.1989 281.269 13.8177 280.585 13.6855C280.227 13.6232 279.892 13.4443 279.542 13.3276C278.344 12.8997 278.367 12.9075 278.679 11.7173C278.788 11.3128 279.013 11.1883 279.379 11.1338C281.082 10.8616 282.786 10.5737 284.482 10.2937C285.571 10.1148 286.03 10.566 285.874 11.6551C284.988 17.7151 284.085 23.7752 283.191 29.8275C283.16 30.0375 283.128 30.2554 283.136 30.4732C283.16 31.2667 283.478 31.4534 284.21 31.1578C284.793 30.9166 285.19 30.4187 285.773 30.0453V30.0531Z" fill="#01916D"/>
<path d="M229.171 15.1946C229.91 13.9499 230.602 13.0319 231.567 12.3474C233.574 10.9315 235.736 10.6359 238.07 11.3905C238.498 11.5305 238.654 11.7328 238.638 12.184C238.607 12.9153 238.63 13.6543 238.63 14.4322C237.152 14.0433 235.76 13.8955 234.344 14.2222C231.388 14.9068 229.178 17.684 229.178 20.7101C229.178 24.7554 229.163 28.7928 229.194 32.8303C229.194 33.5148 229.038 33.7171 228.331 33.7015C226.23 33.6704 226.222 33.7015 226.222 31.5778C226.222 25.2843 226.238 18.9987 226.207 12.6974C226.207 11.9351 226.393 11.7017 227.171 11.7173C229.171 11.7639 229.171 11.725 229.171 13.7554V15.1868V15.1946Z" fill="#000100"/>
<path d="M56.3709 14.8677C57.2811 13.5919 58.2691 12.495 59.6615 11.7871C61.4586 10.8691 63.31 10.7524 65.216 11.3981C65.5505 11.5148 65.8305 11.6082 65.815 12.0749C65.7761 12.8373 65.8072 13.5997 65.8072 14.4243C64.2669 14.0431 62.8122 13.8953 61.3341 14.2609C58.5958 14.9221 56.3709 17.7305 56.3709 20.5388C56.3709 24.6385 56.3553 28.7382 56.3865 32.8457C56.3865 33.538 56.2231 33.7247 55.523 33.7169C53.4225 33.6858 53.4225 33.7169 53.4225 31.5854C53.4225 25.2919 53.4381 19.0063 53.407 12.7128C53.407 11.9582 53.5859 11.7171 54.3716 11.7326C56.3709 11.7793 56.3709 11.7404 56.3709 13.7708V14.8755V14.8677Z" fill="#000100"/>
<path d="M138.114 15.11C140.332 11.6171 143.311 10.3568 146.602 11.2825C147.317 11.4848 147.652 11.7882 147.543 12.5584C147.465 13.134 147.699 13.8886 147.411 14.2542C147.131 14.6121 146.415 14.1453 145.878 14.0909C142.183 13.7097 139.39 15.5534 138.231 19.1163C138.114 19.4819 138.13 19.8476 138.13 20.2132C138.13 24.4062 138.107 28.5993 138.146 32.7923C138.146 33.5236 137.951 33.7258 137.22 33.7103C135.143 33.6714 135.143 33.7103 135.143 31.6565C135.143 25.332 135.158 19.0152 135.127 12.6906C135.127 11.9127 135.353 11.7104 136.115 11.7337C138.138 11.7804 138.138 11.7493 138.138 13.7641V15.11H138.13H138.114Z" fill="#000100"/>
<path d="M284.429 5.79028C283.068 5.80583 282.002 4.78675 281.986 3.44093C281.971 1.86173 283.402 0.399219 284.973 0.39144C286.428 0.383661 287.455 1.31718 287.455 2.67077C287.463 4.30443 286.039 5.76694 284.421 5.79028H284.429Z" fill="#01916D"/>
</svg>
